<svg width="86" height="288" viewBox="0 0 86 288" fill="none" xmlns="http://www.w3.org/2000/svg">
<path d="M24.5 286C-5.5 191.5 -6.49997 87.5 24.5 2H53.1262C14.6262 38 15.6262 261 53.1262 286H24.5Z" fill="#FF0000" stroke="black" stroke-width="3"/>
<path d="M82.6262 144C82.6262 183.139 79.2176 218.528 73.7264 244.094C70.9782 256.889 67.7249 267.143 64.1608 274.162C62.3775 277.673 60.554 280.299 58.7384 282.029C56.9294 283.752 55.2251 284.5 53.6262 284.5C52.0273 284.5 50.3231 283.752 48.5141 282.029C46.6985 280.299 44.8749 277.673 43.0917 274.162C39.5275 267.143 36.2743 256.889 33.526 244.094C28.0348 218.528 24.6262 183.139 24.6262 144C24.6262 104.861 28.0348 69.4715 33.526 43.9058C36.2743 31.1107 39.5275 20.8568 43.0917 13.8382C44.8749 10.3267 46.6985 7.70068 48.5141 5.97097C50.3231 4.24752 52.0273 3.5 53.6262 3.5C55.2251 3.5 56.9294 4.24752 58.7384 5.97097C60.554 7.70068 62.3775 10.3267 64.1608 13.8382C67.7249 20.8568 70.9782 31.1107 73.7264 43.9058C79.2176 69.4715 82.6262 104.861 82.6262 144Z" stroke="black" stroke-width="3"/>
<path d="M37.1262 31C50.0495 -5.03286 57.6262 -4.96712 70.1262 31C57.6346 5.50367 50.416 5.36924 37.1262 31Z" fill="#FF0000" stroke="black" stroke-width="2"/>
<path d="M70.5254 258.298C59.1949 294.863 51.6226 295.13 37.5571 259.745C51.155 284.669 58.3725 284.487 70.5254 258.298Z" fill="#FF0000" stroke="black" stroke-width="2"/>
<path d="M59.1262 13L54.1262 12C81.6262 59 75.6262 243.5 55.1262 278L60.1262 276C85.6262 248.5 88.6262 37.5 59.1262 13Z" fill="#FF0000" stroke="black" stroke-width="2"/>
<path d="M43.5984 165C41.6354 147.314 41.6354 141.284 43.5984 124H75.1262C71.9864 137.265 71.9864 149.725 75.1262 165H43.5984Z" fill="#808080" stroke="black" stroke-width="3"/>
<path d="M79.6262 144.5C79.6262 150.698 79.291 156.3 78.7519 160.344C78.4818 162.369 78.1631 163.984 77.817 165.082C77.6429 165.634 77.4707 166.026 77.3118 166.27C77.2204 166.41 77.1572 166.467 77.1262 166.489C77.0952 166.467 77.0319 166.41 76.9405 166.27C76.7816 166.026 76.6094 165.634 76.4353 165.082C76.0892 163.984 75.7705 162.369 75.5005 160.344C74.9613 156.3 74.6262 150.698 74.6262 144.5C74.6262 138.302 74.9613 132.7 75.5005 128.656C75.7705 126.631 76.0892 125.016 76.4353 123.918C76.6094 123.366 76.7816 122.974 76.9405 122.73C77.0319 122.59 77.0952 122.533 77.1262 122.511C77.1571 122.533 77.2204 122.59 77.3118 122.73C77.4707 122.974 77.6429 123.366 77.817 123.918C78.1631 125.016 78.4818 126.631 78.7519 128.656C79.291 132.7 79.6262 138.302 79.6262 144.5Z" fill="#808080" stroke="black"/>
<path d="M84 136H75V152H84V136Z" fill="#808080" stroke="black" stroke-width="3"/>
<path d="M52.6261 165H44.1817L65.6262 239H74.6262L52.6261 165Z" fill="#808080" stroke="black" stroke-width="2"/>
<path d="M54.6262 166L74.1262 231.5" stroke="black" stroke-width="2"/>
<path d="M74.1262 45.5H65.6262L43.6262 122H53.1262L74.1262 45.5Z" fill="#808080" stroke="black" stroke-width="2"/>
<path d="M54.6262 122.5L74.1262 52" stroke="black" stroke-width="2"/>
<path d="M42.6262 136L43.6262 123L29.1262 72L27.1262 86.5L42.6262 136Z" fill="#808080" stroke="black" stroke-width="2"/>
<path d="M42.1262 141L27.1262 91" stroke="black" stroke-width="3"/>
<path d="M44.1263 163.5L42.1263 150.5L27.6262 204L29.1262 219.5L44.1263 163.5Z" fill="#808080" stroke="black" stroke-width="2"/>
<path d="M42.1262 150L27.1262 202" stroke="black" stroke-width="3"/>
</svg>
