<svg width="776" height="46" viewBox="0 0 776 46" fill="none" xmlns="http://www.w3.org/2000/svg">
<path d="M588 15H188V31H588V15Z" fill="#808080" stroke="black" stroke-width="3"/>
<path d="M270.243 15H265.882V31H270.243V15Z" fill="black" stroke="black" stroke-width="2"/>
<path d="M287.065 15H282.704V31H287.065V15Z" fill="black" stroke="black" stroke-width="2"/>
<path d="M510.118 15H505.757V31H510.118V15Z" fill="black" stroke="black" stroke-width="2"/>
<path d="M492.673 15H488.312V31H492.673V15Z" fill="black" stroke="black" stroke-width="2"/>
<path d="M348.125 15H347.502V31H348.125V15Z" fill="black" stroke="black" stroke-width="3"/>
<path d="M428.498 15H427.875V31H428.498V15Z" fill="black" stroke="black" stroke-width="3"/>
<path d="M147.472 43.9999C145.509 26.3136 145.509 20.2842 147.472 2.99988H179C175.86 16.2646 175.86 28.7254 179 43.9999H147.472Z" fill="#808080" stroke="black" stroke-width="3"/>
<path d="M183.5 23.4999C183.5 29.6981 183.165 35.3 182.626 39.3437C182.356 41.3692 182.037 42.9836 181.691 44.0814C181.517 44.6339 181.345 45.0259 181.186 45.2698C181.094 45.4101 181.031 45.4667 181 45.4887C180.969 45.4667 180.906 45.4101 180.814 45.2698C180.655 45.0259 180.483 44.6339 180.309 44.0814C179.963 42.9836 179.644 41.3692 179.374 39.3437C178.835 35.3 178.5 29.6981 178.5 23.4999C178.5 17.3016 178.835 11.6998 179.374 7.65606C179.644 5.63056 179.963 4.01619 180.309 2.91836C180.483 2.36591 180.655 1.97381 180.814 1.72996C180.906 1.58967 180.969 1.53308 181 1.51107C181.031 1.53308 181.094 1.58967 181.186 1.72996C181.345 1.97381 181.517 2.36591 181.691 2.91836C182.037 4.01619 182.356 5.63056 182.626 7.65606C183.165 11.6998 183.5 17.3016 183.5 23.4999Z" fill="#808080" stroke="black"/>
<path d="M188 14.9999H179V30.9999H188V14.9999Z" fill="#808080" stroke="black" stroke-width="3"/>
<path d="M628.528 2.00006C630.491 19.6863 630.492 25.7157 628.529 43.0001L597.002 43.0013C600.141 29.7364 600.14 17.2757 597 2.00127L628.528 2.00006Z" fill="#808080" stroke="black" stroke-width="3"/>
<path d="M592.501 22.5014C592.501 16.3032 592.836 10.7013 593.375 6.65758C593.645 4.63207 593.963 3.01769 594.309 1.91985C594.483 1.36738 594.655 0.975284 594.814 0.731423C594.906 0.591146 594.969 0.534548 595 0.512533C595.031 0.534546 595.094 0.591138 595.186 0.731409C595.345 0.975257 595.517 1.36734 595.691 1.9198C596.037 3.01761 596.356 4.63197 596.626 6.65745C597.165 10.7011 597.501 16.303 597.501 22.5012C597.501 28.6995 597.166 34.3014 596.627 38.3451C596.357 40.3706 596.039 41.985 595.693 43.0828C595.518 43.6353 595.346 44.0274 595.187 44.2712C595.096 44.4115 595.033 44.4681 595.002 44.4901C594.971 44.4681 594.907 44.4115 594.816 44.2713C594.657 44.0274 594.485 43.6353 594.311 43.0829C593.965 41.9851 593.646 40.3707 593.376 38.3452C592.836 34.3015 592.501 28.6997 592.501 22.5014Z" fill="#808080" stroke="black"/>
<path d="M588.001 31.0016L597.001 31.0013L597.001 15.0013L588.001 15.0016L588.001 31.0016Z" fill="#808080" stroke="black" stroke-width="3"/>
<path d="M8.41056 38C-0.136873 25.4902 -0.136837 21.2255 8.41056 9H145.688C145.255 18.942 146.57 27.8114 145.688 38H8.41056Z" fill="#808080" stroke="black" stroke-width="3"/>
<path d="M767.589 8C776.137 20.5098 776.137 24.7745 767.589 37L630.312 37C630.745 27.058 629.43 18.1886 630.312 8L767.589 8Z" fill="#808080" stroke="black" stroke-width="3"/>
</svg>
