<svg width="1018" height="46" viewBox="0 0 1018 46" fill="none" xmlns="http://www.w3.org/2000/svg">
<path d="M830 14.9999H188V30.9999H830V14.9999Z" fill="#808080" stroke="black" stroke-width="3"/>
<path d="M320 14.9999H313V30.9999H320V14.9999Z" fill="black" stroke="black" stroke-width="2"/>
<path d="M347 14.9999H340V30.9999H347V14.9999Z" fill="black" stroke="black" stroke-width="2"/>
<path d="M677 14.9999H670V30.9999H677V14.9999Z" fill="black" stroke="black" stroke-width="2"/>
<path d="M705 14.9999H698V30.9999H705V14.9999Z" fill="black" stroke="black" stroke-width="2"/>
<path d="M445 14.9999H444V30.9999H445V14.9999Z" fill="black" stroke="black" stroke-width="3"/>
<path d="M574 14.9999H573V30.9999H574V14.9999Z" fill="black" stroke="black" stroke-width="3"/>
<path d="M147.472 43.9999C145.509 26.3136 145.509 20.2842 147.472 2.99988H179C175.86 16.2646 175.86 28.7254 179 43.9999H147.472Z" fill="#808080" stroke="black" stroke-width="3"/>
<path d="M183.5 23.4999C183.5 29.6981 183.165 35.3 182.626 39.3437C182.356 41.3692 182.037 42.9836 181.691 44.0814C181.517 44.6339 181.345 45.0259 181.186 45.2698C181.094 45.4101 181.031 45.4667 181 45.4887C180.969 45.4667 180.906 45.4101 180.814 45.2698C180.655 45.0259 180.483 44.6339 180.309 44.0814C179.963 42.9836 179.644 41.3692 179.374 39.3437C178.835 35.3 178.5 29.6981 178.5 23.4999C178.5 17.3016 178.835 11.6998 179.374 7.65606C179.644 5.63056 179.963 4.01619 180.309 2.91836C180.483 2.36591 180.655 1.97381 180.814 1.72996C180.906 1.58967 180.969 1.53308 181 1.51107C181.031 1.53308 181.094 1.58967 181.186 1.72996C181.345 1.97381 181.517 2.36591 181.691 2.91836C182.037 4.01619 182.356 5.63056 182.626 7.65606C183.165 11.6998 183.5 17.3016 183.5 23.4999Z" fill="#808080" stroke="black"/>
<path d="M188 14.9999H179V30.9999H188V14.9999Z" fill="#808080" stroke="black" stroke-width="3"/>
<path d="M870.528 2.00006C872.491 19.6863 872.492 25.7157 870.529 43.0001L839.002 43.0013C842.141 29.7364 842.14 17.2757 839 2.00127L870.528 2.00006Z" fill="#808080" stroke="black" stroke-width="3"/>
<path d="M834.501 22.5014C834.501 16.3032 834.836 10.7013 835.375 6.65758C835.645 4.63207 835.963 3.01769 836.309 1.91985C836.483 1.36738 836.655 0.975284 836.814 0.731423C836.906 0.591146 836.969 0.534548 837 0.512533C837.031 0.534546 837.094 0.591138 837.186 0.731409C837.345 0.975257 837.517 1.36734 837.691 1.9198C838.037 3.01761 838.356 4.63197 838.626 6.65745C839.165 10.7011 839.501 16.303 839.501 22.5012C839.501 28.6995 839.166 34.3014 838.627 38.3451C838.357 40.3706 838.039 41.985 837.693 43.0828C837.518 43.6353 837.346 44.0274 837.187 44.2712C837.096 44.4115 837.033 44.4681 837.002 44.4901C836.971 44.4681 836.907 44.4115 836.816 44.2713C836.657 44.0274 836.485 43.6353 836.311 43.0829C835.965 41.9851 835.646 40.3707 835.376 38.3452C834.836 34.3015 834.501 28.6997 834.501 22.5014Z" fill="#808080" stroke="black"/>
<path d="M830.001 31.0016L839.001 31.0013L839.001 15.0013L830.001 15.0016L830.001 31.0016Z" fill="#808080" stroke="black" stroke-width="3"/>
<path d="M8.41056 38C-0.136873 25.4902 -0.136837 21.2255 8.41056 9H145.688C145.255 18.942 146.57 27.8114 145.688 38H8.41056Z" fill="#808080" stroke="black" stroke-width="3"/>
<path d="M1009.59 8C1018.14 20.5098 1018.14 24.7745 1009.59 37L872.312 37C872.745 27.058 871.43 18.1886 872.312 8L1009.59 8Z" fill="#808080" stroke="black" stroke-width="3"/>
</svg>
